<svg width="67" height="51" viewBox="0 0 67 51" fill="none" xmlns="http://www.w3.org/2000/svg">
<path d="M56.718 4.54213C52.4469 2.61597 47.8687 1.19229 43.0811 0.382747C43.0385 0.374562 42.9943 0.379837 42.9548 0.397842C42.9153 0.415847 42.8824 0.445691 42.8606 0.483242C42.2743 1.51332 41.6211 2.85604 41.1633 3.91682C36.0856 3.15819 30.9235 3.15819 25.8458 3.91682C25.3359 2.7412 24.7609 1.5949 24.1234 0.483242C24.1018 0.445229 24.0691 0.41471 24.0297 0.395756C23.9903 0.376803 23.9461 0.370317 23.9029 0.377164C19.1181 1.18671 14.5399 2.61039 10.266 4.53933C10.2292 4.55476 10.1981 4.58106 10.1767 4.61471C1.48926 17.386 -0.891966 29.8418 0.277709 42.1412C0.280964 42.1714 0.290314 42.2005 0.305192 42.2269C0.320069 42.2533 0.340162 42.2764 0.364248 42.2948C5.43486 45.9864 11.0905 48.7985 17.0942 50.6135C17.1361 50.6264 17.1808 50.6264 17.2227 50.6134C17.2645 50.6005 17.3015 50.5752 17.3287 50.5409C18.6206 48.8132 19.7655 46.9802 20.7512 45.0612C20.7649 45.0349 20.7728 45.0061 20.7743 44.9765C20.7759 44.947 20.7711 44.9174 20.7602 44.8899C20.7494 44.8624 20.7327 44.8375 20.7114 44.817C20.6901 44.7964 20.6647 44.7807 20.6367 44.7709C18.8334 44.0917 17.0861 43.2722 15.4109 42.3199C15.3808 42.3027 15.3554 42.2783 15.3371 42.2489C15.3187 42.2195 15.308 42.186 15.3057 42.1514C15.3035 42.1168 15.3099 42.0822 15.3244 42.0508C15.3389 42.0192 15.3609 41.9918 15.3886 41.9709C15.7403 41.7113 16.092 41.4406 16.427 41.1698C16.4572 41.1454 16.4935 41.1299 16.532 41.125C16.5704 41.1201 16.6095 41.1259 16.6448 41.1419C27.6073 46.0661 39.4799 46.0661 50.3141 41.1419C50.3495 41.125 50.389 41.1184 50.428 41.1228C50.467 41.1272 50.5039 41.1426 50.5346 41.167C50.8696 41.4406 51.2186 41.7113 51.5731 41.9709C51.601 41.9914 51.6235 42.0184 51.6384 42.0497C51.6533 42.0809 51.6602 42.1154 51.6586 42.1499C51.6569 42.1845 51.6467 42.2181 51.6289 42.2478C51.611 42.2774 51.5861 42.3022 51.5564 42.3199C49.887 43.2802 48.1506 44.0925 46.3277 44.7681C46.2997 44.7782 46.2742 44.7942 46.2529 44.815C46.2316 44.8358 46.215 44.861 46.2041 44.8887C46.1933 44.9165 46.1885 44.9462 46.1901 44.9759C46.1917 45.0057 46.1996 45.0347 46.2133 45.0612C47.2182 46.979 48.3684 48.8046 49.6329 50.5382C49.6592 50.5737 49.6959 50.6003 49.7378 50.6143C49.7798 50.6283 49.8251 50.629 49.8674 50.6163C55.8815 48.8064 61.5463 45.9929 66.6225 42.2948C66.6473 42.2775 66.6681 42.255 66.6835 42.229C66.6989 42.2031 66.7086 42.1741 66.7119 42.144C68.1077 27.924 64.3725 15.5687 56.8045 4.62029C56.786 4.58471 56.7553 4.55697 56.718 4.54213ZM22.3899 34.6516C19.0902 34.6516 16.3684 31.6674 16.3684 28.0077C16.3684 24.3452 19.0372 21.3639 22.3899 21.3639C25.7677 21.3639 28.4644 24.3704 28.4113 28.0077C28.4113 31.6702 25.7426 34.6516 22.3899 34.6516ZM44.6528 34.6516C41.3503 34.6516 38.6313 31.6674 38.6313 28.0077C38.6313 24.3452 41.2973 21.3639 44.6528 21.3639C48.0306 21.3639 50.7272 24.3704 50.6742 28.0077C50.6742 31.6702 48.0334 34.6516 44.6528 34.6516Z" fill="#62EA10"/>
</svg>
