<svg width="126" height="32" viewBox="0 0 126 32" fill="none" xmlns="http://www.w3.org/2000/svg">
<mask id="path-1-inside-1_541_901" fill="white">
<path d="M42.6363 3.39143C41.4947 0.863714 39.4665 -0.220085 36.7367 0.0866177C34.1428 0.379536 32.0739 1.78038 30.1594 3.44829C29.6244 3.91179 29.2388 4.04619 28.5355 3.72053C24.1886 1.70801 19.8026 1.70801 15.4573 3.71709C14.8407 4.00139 14.4585 3.9876 13.9285 3.51377C12.2689 2.02505 10.4326 0.801684 8.24304 0.239969C5.13954 -0.537127 2.6119 0.579411 1.3243 3.49826C-0.624085 7.92822 -0.379475 12.3358 1.77445 16.6245C2.67136 18.4147 4.10335 19.4882 6.20462 19.2952C6.84842 19.2366 7.07434 19.4951 7.22383 20.1205C8.90722 27.185 14.5536 31.7908 21.7306 31.9941C25.19 32.0921 28.5763 30.9732 31.3152 28.8273C34.054 26.6813 35.9767 23.6405 36.7571 20.2205C36.8998 19.6122 37.0459 19.2177 37.8018 19.2935C39.8402 19.4968 41.2807 18.4612 42.1725 16.7175C44.4012 12.3651 44.6339 7.88342 42.6363 3.39143ZM38.1602 6.54978C36.8556 6.50843 35.5969 6.66867 34.4639 7.39063L34.0426 7.63013C34.2482 7.75764 34.4452 7.69044 34.644 7.61635C35.7407 7.47786 36.8541 7.59091 37.902 7.94718C38.2639 8.07985 38.6121 8.27972 38.4711 8.74839C38.3301 9.21706 37.9496 9.19811 37.5674 9.07922C36.3013 8.65411 34.9306 8.6772 33.6791 9.1447C32.6956 9.51688 32.8722 8.41929 32.4459 8.07813C32.1061 7.79555 32.3524 7.38891 32.6616 7.1339C34.2787 5.81404 36.1388 5.25577 38.1959 5.33675C38.6104 5.35226 39.0452 5.46081 38.9926 6.02597C38.9416 6.5136 38.5594 6.56873 38.1602 6.54978ZM5.50816 8.69153C5.39095 8.16256 5.86828 8.04711 6.24878 7.9041C7.2629 7.52847 8.32287 7.58361 9.38625 7.463C8.38233 6.67384 7.24251 6.54978 6.07042 6.54978C5.60838 6.54978 4.99176 6.64799 5.01894 5.93121C5.04272 5.24199 5.66783 5.32986 6.11968 5.32814C7.89201 5.28746 9.62756 5.84438 11.0544 6.91162C11.4603 7.21488 11.9648 7.54226 11.5096 8.166C11.1478 8.66052 11.0815 9.54444 10.0284 9.08267C8.92591 8.59504 7.73683 8.69498 6.58003 9.04476C6.15026 9.17226 5.64575 9.31528 5.50816 8.69153ZM11.2837 16.6882C11.3924 15.8801 11.8901 15.3959 12.7004 15.4304C13.5107 15.4648 13.9693 15.9887 14.0186 16.8002C14.0644 17.5394 13.3391 18.2148 12.5917 18.1787C11.8442 18.1425 11.1835 17.4429 11.2837 16.6882ZM17.3429 22.0969C17.3072 21.6179 17.3429 21.132 17.3429 20.6478C17.3429 18.6577 17.6028 16.7106 18.498 14.9083C19.2233 13.4454 20.3122 12.4495 22.0126 12.4598C23.6705 12.4598 24.7423 13.4661 25.4303 14.8721C26.6364 17.3516 26.9319 20.0068 26.565 22.7103C26.3068 24.6263 24.9819 25.7945 23.0657 26.0203C22.4824 26.0837 21.8946 26.0947 21.3093 26.053C18.9481 25.9117 17.528 24.485 17.3429 22.0969ZM29.9777 16.7744C30.0405 15.9594 30.5213 15.5096 31.3366 15.4114C32.1112 15.4872 32.6191 15.9025 32.7075 16.721C32.789 17.4774 32.1333 18.1683 31.3706 18.189C30.6079 18.2097 29.9199 17.5222 29.9777 16.7744Z"/>
<path d="M25.522 21.1146V20.5236C25.5109 18.9271 25.1971 17.3477 24.5979 15.8714C24.1002 14.7014 23.4224 13.6642 21.9837 13.6573C20.5449 13.6504 19.8331 14.6618 19.3524 15.8542C18.5268 17.8908 18.3332 20.0377 18.5336 22.2122C18.6254 23.2099 19.0432 24.0748 20.0064 24.5504C22.9196 25.984 25.5101 24.3729 25.522 21.1146Z"/>
</mask>
<path d="M42.6363 3.39143C41.4947 0.863714 39.4665 -0.220085 36.7367 0.0866177C34.1428 0.379536 32.0739 1.78038 30.1594 3.44829C29.6244 3.91179 29.2388 4.04619 28.5355 3.72053C24.1886 1.70801 19.8026 1.70801 15.4573 3.71709C14.8407 4.00139 14.4585 3.9876 13.9285 3.51377C12.2689 2.02505 10.4326 0.801684 8.24304 0.239969C5.13954 -0.537127 2.6119 0.579411 1.3243 3.49826C-0.624085 7.92822 -0.379475 12.3358 1.77445 16.6245C2.67136 18.4147 4.10335 19.4882 6.20462 19.2952C6.84842 19.2366 7.07434 19.4951 7.22383 20.1205C8.90722 27.185 14.5536 31.7908 21.7306 31.9941C25.19 32.0921 28.5763 30.9732 31.3152 28.8273C34.054 26.6813 35.9767 23.6405 36.7571 20.2205C36.8998 19.6122 37.0459 19.2177 37.8018 19.2935C39.8402 19.4968 41.2807 18.4612 42.1725 16.7175C44.4012 12.3651 44.6339 7.88342 42.6363 3.39143ZM38.1602 6.54978C36.8556 6.50843 35.5969 6.66867 34.4639 7.39063L34.0426 7.63013C34.2482 7.75764 34.4452 7.69044 34.644 7.61635C35.7407 7.47786 36.8541 7.59091 37.902 7.94718C38.2639 8.07985 38.6121 8.27972 38.4711 8.74839C38.3301 9.21706 37.9496 9.19811 37.5674 9.07922C36.3013 8.65411 34.9306 8.6772 33.6791 9.1447C32.6956 9.51688 32.8722 8.41929 32.4459 8.07813C32.1061 7.79555 32.3524 7.38891 32.6616 7.1339C34.2787 5.81404 36.1388 5.25577 38.1959 5.33675C38.6104 5.35226 39.0452 5.46081 38.9926 6.02597C38.9416 6.5136 38.5594 6.56873 38.1602 6.54978ZM5.50816 8.69153C5.39095 8.16256 5.86828 8.04711 6.24878 7.9041C7.2629 7.52847 8.32287 7.58361 9.38625 7.463C8.38233 6.67384 7.24251 6.54978 6.07042 6.54978C5.60838 6.54978 4.99176 6.64799 5.01894 5.93121C5.04272 5.24199 5.66783 5.32986 6.11968 5.32814C7.89201 5.28746 9.62756 5.84438 11.0544 6.91162C11.4603 7.21488 11.9648 7.54226 11.5096 8.166C11.1478 8.66052 11.0815 9.54444 10.0284 9.08267C8.92591 8.59504 7.73683 8.69498 6.58003 9.04476C6.15026 9.17226 5.64575 9.31528 5.50816 8.69153ZM11.2837 16.6882C11.3924 15.8801 11.8901 15.3959 12.7004 15.4304C13.5107 15.4648 13.9693 15.9887 14.0186 16.8002C14.0644 17.5394 13.3391 18.2148 12.5917 18.1787C11.8442 18.1425 11.1835 17.4429 11.2837 16.6882ZM17.3429 22.0969C17.3072 21.6179 17.3429 21.132 17.3429 20.6478C17.3429 18.6577 17.6028 16.7106 18.498 14.9083C19.2233 13.4454 20.3122 12.4495 22.0126 12.4598C23.6705 12.4598 24.7423 13.4661 25.4303 14.8721C26.6364 17.3516 26.9319 20.0068 26.565 22.7103C26.3068 24.6263 24.9819 25.7945 23.0657 26.0203C22.4824 26.0837 21.8946 26.0947 21.3093 26.053C18.9481 25.9117 17.528 24.485 17.3429 22.0969ZM29.9777 16.7744C30.0405 15.9594 30.5213 15.5096 31.3366 15.4114C32.1112 15.4872 32.6191 15.9025 32.7075 16.721C32.789 17.4774 32.1333 18.1683 31.3706 18.189C30.6079 18.2097 29.9199 17.5222 29.9777 16.7744Z" fill="url(#paint0_linear_541_901)"/>
<path d="M25.522 21.1146V20.5236C25.5109 18.9271 25.1971 17.3477 24.5979 15.8714C24.1002 14.7014 23.4224 13.6642 21.9837 13.6573C20.5449 13.6504 19.8331 14.6618 19.3524 15.8542C18.5268 17.8908 18.3332 20.0377 18.5336 22.2122C18.6254 23.2099 19.0432 24.0748 20.0064 24.5504C22.9196 25.984 25.5101 24.3729 25.522 21.1146Z" fill="url(#paint1_linear_541_901)"/>
<path d="M42.6363 3.39143L43.55 2.98508L43.5476 2.97985L42.6363 3.39143ZM36.7367 0.0866177L36.6251 -0.90713L36.6245 -0.907066L36.7367 0.0866177ZM30.1594 3.44829L30.8142 4.20415L30.8163 4.20227L30.1594 3.44829ZM28.5355 3.72053L28.9557 2.8131L28.9556 2.81307L28.5355 3.72053ZM15.4573 3.71709L15.876 4.62521L15.877 4.62476L15.4573 3.71709ZM13.9285 3.51377L13.2608 4.25816L13.262 4.25926L13.9285 3.51377ZM8.24304 0.239969L8.49153 -0.728681L8.48593 -0.730083L8.24304 0.239969ZM1.3243 3.49826L0.40937 3.09465L0.408928 3.09566L1.3243 3.49826ZM1.77445 16.6245L2.66853 16.1765L2.66808 16.1756L1.77445 16.6245ZM6.20462 19.2952L6.114 18.2993L6.11316 18.2994L6.20462 19.2952ZM7.22383 20.1205L8.19659 19.8887L8.19644 19.8881L7.22383 20.1205ZM21.7306 31.9941L21.7023 32.9937L21.7023 32.9937L21.7306 31.9941ZM36.7571 20.2205L35.7835 19.9921L35.7822 19.998L36.7571 20.2205ZM37.8018 19.2935L37.702 20.2885L37.7026 20.2885L37.8018 19.2935ZM42.1725 16.7175L41.2824 16.2617L41.2822 16.2622L42.1725 16.7175ZM38.1602 6.54978L38.2077 5.55091L38.1998 5.55053L38.1919 5.55028L38.1602 6.54978ZM34.4639 7.39063L34.9581 8.25996L34.98 8.24751L35.0013 8.23397L34.4639 7.39063ZM34.0426 7.63013L33.5484 6.76081L32.0852 7.59266L33.5155 8.47991L34.0426 7.63013ZM34.644 7.61635L34.5187 6.62423L34.4035 6.63878L34.2946 6.67934L34.644 7.61635ZM37.902 7.94718L38.2463 7.00831L38.2352 7.00422L38.2239 7.00039L37.902 7.94718ZM37.5674 9.07922L37.2491 10.0272L37.2597 10.0308L37.2704 10.0341L37.5674 9.07922ZM33.6791 9.1447L33.3292 8.20792L33.3252 8.20942L33.6791 9.1447ZM32.4459 8.07813L31.8064 8.84694L31.8137 8.85301L31.8211 8.85893L32.4459 8.07813ZM32.6616 7.1339L32.0293 6.35916L32.0253 6.36247L32.6616 7.1339ZM38.1959 5.33675L38.1566 6.33598L38.1585 6.33605L38.1959 5.33675ZM38.9926 6.02597L39.9872 6.12992L39.9883 6.11875L38.9926 6.02597ZM5.50816 8.69153L6.48468 8.47612L6.48448 8.4752L5.50816 8.69153ZM6.24878 7.9041L5.90144 6.96635L5.89696 6.96803L6.24878 7.9041ZM9.38625 7.463L9.49895 8.45663L11.9192 8.18211L10.0042 6.67682L9.38625 7.463ZM5.01894 5.93121L6.01822 5.9691L6.01834 5.96569L5.01894 5.93121ZM6.11968 5.32814L6.1235 6.32813L6.13306 6.32809L6.14263 6.32787L6.11968 5.32814ZM11.0544 6.91162L10.4554 7.71239L10.4559 7.71279L11.0544 6.91162ZM11.5096 8.166L12.3166 8.75649L12.3173 8.75554L11.5096 8.166ZM10.0284 9.08267L9.62384 9.99721L9.6268 9.9985L10.0284 9.08267ZM6.58003 9.04476L6.86446 10.0035L6.86945 10.002L6.58003 9.04476ZM11.2837 16.6882L10.2926 16.5549L10.2924 16.5566L11.2837 16.6882ZM14.0186 16.8002L13.0204 16.8608L13.0205 16.8621L14.0186 16.8002ZM17.3429 22.0969L16.3456 22.1711L16.3459 22.1742L17.3429 22.0969ZM18.498 14.9083L19.3936 15.3531L19.3939 15.3525L18.498 14.9083ZM22.0126 12.4598L22.0065 13.4598H22.0126V12.4598ZM25.4303 14.8721L26.3296 14.4347L26.3285 14.4326L25.4303 14.8721ZM26.565 22.7103L25.5741 22.5758L25.574 22.5767L26.565 22.7103ZM23.0657 26.0203L23.1739 27.0144L23.1827 27.0134L23.0657 26.0203ZM21.3093 26.053L21.3803 25.0555L21.369 25.0548L21.3093 26.053ZM29.9777 16.7744L30.9747 16.8514L30.9747 16.8513L29.9777 16.7744ZM31.3366 15.4114L31.434 14.4162L31.3254 14.4056L31.217 14.4186L31.3366 15.4114ZM32.7075 16.721L33.7017 16.6138L33.7017 16.6136L32.7075 16.721ZM25.522 21.1146L26.522 21.1183V21.1146H25.522ZM25.522 20.5236L26.522 20.5236L26.522 20.5166L25.522 20.5236ZM24.5979 15.8714L25.5245 15.4953L25.5214 15.4876L25.5181 15.4799L24.5979 15.8714ZM19.3524 15.8542L20.2792 16.2298L20.2799 16.2281L19.3524 15.8542ZM18.5336 22.2122L19.5294 22.1207L19.5294 22.1204L18.5336 22.2122ZM20.0064 24.5504L19.5637 25.447L19.5649 25.4476L20.0064 24.5504ZM43.5476 2.97985C42.9056 1.55818 41.9799 0.472989 40.7664 -0.198775C39.5558 -0.868923 38.1482 -1.07826 36.6251 -0.90713L36.8484 1.08037C38.0551 0.94479 39.0264 1.124 39.7978 1.55101C40.5662 1.9764 41.2254 2.69696 41.7249 3.80301L43.5476 2.97985ZM36.6245 -0.907066C33.7233 -0.579445 31.4632 0.986142 29.5025 2.69431L30.8163 4.20227C32.6845 2.57461 34.5624 1.33852 36.8489 1.0803L36.6245 -0.907066ZM29.5047 2.69243C29.2725 2.89354 29.2037 2.90194 29.2122 2.90021C29.2469 2.8932 29.2006 2.92649 28.9557 2.8131L28.1153 4.62796C28.5737 4.84024 29.0718 4.96915 29.6089 4.86048C30.1198 4.75709 30.5113 4.46654 30.8142 4.20415L29.5047 2.69243ZM28.9556 2.81307C24.3423 0.677203 19.6492 0.677193 15.0377 2.80941L15.877 4.62476C19.9559 2.73882 24.0349 2.73881 28.1154 4.62799L28.9556 2.81307ZM15.0386 2.80896C14.7891 2.92402 14.741 2.90245 14.7733 2.90612C14.8216 2.91161 14.7807 2.93425 14.595 2.76827L13.262 4.25926C13.6064 4.56712 14.0215 4.83357 14.5476 4.89334C15.0576 4.95128 15.509 4.79445 15.876 4.62521L15.0386 2.80896ZM14.5963 2.76937C12.8705 1.22128 10.8941 -0.112312 8.49153 -0.728665L7.99455 1.2086C9.97116 1.71568 11.6674 2.82882 13.2608 4.25816L14.5963 2.76937ZM8.48593 -0.730083C6.76304 -1.16148 5.11348 -1.08701 3.68247 -0.424277C2.24558 0.241178 1.13433 1.45124 0.409371 3.09465L2.23924 3.90187C2.80188 2.62643 3.59825 1.8188 4.52295 1.39055C5.45354 0.959573 6.61953 0.864326 8.00014 1.21002L8.48593 -0.730083ZM0.408928 3.09566C-1.66769 7.81717 -1.39745 12.537 0.880828 17.0733L2.66808 16.1756C0.638496 12.1346 0.419519 8.03927 2.23968 3.90086L0.408928 3.09566ZM0.880383 17.0724C1.38644 18.0825 2.0764 18.9566 2.99962 19.5463C3.93533 20.1439 5.04383 20.406 6.29607 20.291L6.11316 18.2994C5.26414 18.3774 4.60601 18.1992 4.07618 17.8608C3.53386 17.5144 3.05937 16.9567 2.66853 16.1765L0.880383 17.0724ZM6.29524 20.2911C6.34077 20.2869 6.3706 20.2867 6.38776 20.2874C6.40472 20.2881 6.40542 20.2895 6.3941 20.2869C6.38199 20.2842 6.35867 20.2775 6.32905 20.2629C6.29884 20.248 6.26934 20.2285 6.24304 20.2056C6.18987 20.1593 6.17696 20.1234 6.18691 20.1446C6.19195 20.1553 6.20093 20.1767 6.2126 20.2125C6.22425 20.2483 6.23718 20.2942 6.25122 20.353L8.19644 19.8881C8.11318 19.5397 7.96178 19.0501 7.55614 18.6971C7.1064 18.3056 6.56304 18.2584 6.114 18.2993L6.29524 20.2911ZM6.25106 20.3523C8.03822 27.8523 14.0683 32.7774 21.7023 32.9937L21.7589 30.9945C15.039 30.8041 9.77622 26.5178 8.19659 19.8887L6.25106 20.3523ZM21.7023 32.9937C25.3963 33.0983 29.0105 31.9034 31.9319 29.6144L30.6984 28.0401C28.1421 30.043 24.9837 31.0858 21.7589 30.9945L21.7023 32.9937ZM31.9319 29.6144C34.853 27.3257 36.901 24.0847 37.7321 20.4429L35.7822 19.998C35.0524 23.1962 33.255 26.037 30.6984 28.0401L31.9319 29.6144ZM37.7307 20.4489C37.7472 20.3785 37.7616 20.3206 37.7755 20.2706C37.7894 20.2206 37.8009 20.1852 37.8104 20.16C37.8309 20.1055 37.8314 20.1266 37.7924 20.1698C37.7713 20.1933 37.7429 20.2183 37.7083 20.2401C37.6737 20.2618 37.6427 20.2741 37.6211 20.2804C37.5825 20.2917 37.5958 20.2778 37.702 20.2885L37.9016 18.2985C37.3412 18.2423 36.7451 18.3444 36.3066 18.8311C35.9591 19.2167 35.8457 19.727 35.7835 19.9921L37.7307 20.4489ZM37.7026 20.2885C38.924 20.4104 40.0172 20.1615 40.945 19.585C41.8616 19.0153 42.5557 18.1644 43.0628 17.1728L41.2822 16.2622C40.8975 17.0144 40.4255 17.553 39.8893 17.8863C39.3642 18.2126 38.718 18.3799 37.9011 18.2984L37.7026 20.2885ZM43.0626 17.1733C45.4211 12.5674 45.6774 7.76885 43.55 2.98509L41.7225 3.79777C43.5904 7.998 43.3813 12.1628 41.2824 16.2617L43.0626 17.1733ZM38.1919 5.55028C36.7922 5.50592 35.3008 5.67161 33.9265 6.54729L35.0013 8.23397C35.8931 7.66573 36.919 7.51094 38.1285 7.54928L38.1919 5.55028ZM33.9697 6.5213L33.5484 6.76081L34.5369 8.49946L34.9581 8.25996L33.9697 6.5213ZM33.5155 8.47991C34.1836 8.89437 34.8382 8.61117 34.9933 8.55336L34.2946 6.67934C34.2455 6.69768 34.2242 6.70496 34.2106 6.709C34.1989 6.71247 34.2134 6.70715 34.2449 6.70395C34.2792 6.70047 34.3333 6.69951 34.3985 6.71304C34.4654 6.72692 34.5239 6.75191 34.5698 6.78036L33.5155 8.47991ZM34.7692 8.60847C35.7152 8.48902 36.6757 8.58648 37.5802 8.89396L38.2239 7.00039C37.0325 6.59535 35.7662 6.4667 34.5187 6.62423L34.7692 8.60847ZM37.5578 8.88605C37.6245 8.91051 37.6621 8.92797 37.6816 8.93869C37.7023 8.95006 37.6769 8.94003 37.6378 8.89736C37.5921 8.84742 37.5382 8.76376 37.5145 8.65249C37.4915 8.54472 37.5099 8.47217 37.5135 8.46032L39.4287 9.03647C39.5028 8.79028 39.5305 8.517 39.4706 8.23579C39.4099 7.95108 39.2728 7.72129 39.1124 7.54621C38.8232 7.23062 38.4445 7.081 38.2463 7.00831L37.5578 8.88605ZM37.5135 8.46032C37.5144 8.45735 37.5356 8.38986 37.6125 8.31201C37.6943 8.22911 37.7921 8.18221 37.8737 8.16239C37.9443 8.14525 37.984 8.15252 37.9711 8.15095C37.9594 8.14953 37.9261 8.14354 37.8644 8.12435L37.2704 10.0341C37.4968 10.1045 37.9084 10.2121 38.3457 10.1059C38.8995 9.9714 39.2712 9.55991 39.4287 9.03647L37.5135 8.46032ZM37.8857 8.13123C36.4021 7.63309 34.7954 7.66018 33.3292 8.20793L34.0291 10.0815C35.0657 9.69421 36.2005 9.67514 37.2491 10.0272L37.8857 8.13123ZM33.3252 8.20942C33.2063 8.2544 33.3258 8.17699 33.5305 8.26612C33.7262 8.3513 33.7793 8.49578 33.7522 8.44019C33.7416 8.41848 33.7268 8.38319 33.7011 8.31423C33.6809 8.26025 33.6433 8.15532 33.607 8.06558C33.5393 7.89865 33.3919 7.55442 33.0706 7.29732L31.8211 8.85893C31.713 8.77242 31.7034 8.69332 31.7533 8.81651C31.7757 8.87183 31.7918 8.9182 31.8271 9.01308C31.8569 9.09297 31.8995 9.20409 31.9549 9.31764C32.0599 9.53257 32.2798 9.90299 32.7323 10.0999C33.194 10.3009 33.6601 10.2211 34.033 10.08L33.3252 8.20942ZM33.0853 7.30931C33.1436 7.35781 33.2275 7.45846 33.2646 7.6115C33.2995 7.75544 33.2742 7.86772 33.2566 7.9193C33.2402 7.96722 33.2251 7.98108 33.2377 7.96498C33.2483 7.9514 33.2688 7.92936 33.2979 7.90532L32.0253 6.36247C31.7962 6.55139 31.5052 6.85996 31.3642 7.27205C31.2888 7.49248 31.2463 7.77535 31.321 8.08297C31.3978 8.39971 31.5782 8.65715 31.8064 8.84694L33.0853 7.30931ZM33.2939 7.90862C34.7066 6.75558 36.3226 6.26378 38.1566 6.33598L38.2352 4.33753C35.955 4.24776 33.8508 4.87249 32.0293 6.35917L33.2939 7.90862ZM38.1585 6.33605C38.2293 6.3387 38.2711 6.34456 38.2918 6.34903C38.3144 6.35391 38.2816 6.35075 38.2257 6.31454C38.1592 6.27142 38.0822 6.19509 38.0344 6.08721C37.9898 5.98661 37.9981 5.92054 37.9969 5.9332L39.9883 6.11875C40.0134 5.84883 39.9871 5.55725 39.8628 5.27687C39.7354 4.98919 39.5336 4.77879 39.3131 4.63595C38.9178 4.37989 38.4694 4.34629 38.2333 4.33745L38.1585 6.33605ZM37.998 5.92203C37.9985 5.91691 38.0073 5.84779 38.0665 5.75937C38.1289 5.66639 38.2104 5.60675 38.2767 5.57515C38.3333 5.54817 38.3646 5.54806 38.343 5.55041C38.3226 5.55264 38.2812 5.5544 38.2077 5.55091L38.1128 7.54866C38.3316 7.55904 38.7451 7.5675 39.1373 7.38054C39.6365 7.14257 39.9295 6.68202 39.9872 6.12992L37.998 5.92203ZM6.48448 8.4752C6.48868 8.49418 6.50466 8.59567 6.45219 8.7298C6.40072 8.86135 6.31904 8.93293 6.28735 8.95642C6.26415 8.97362 6.26599 8.96656 6.33264 8.93946C6.36276 8.92722 6.39774 8.91412 6.44417 8.89727C6.48478 8.88252 6.54606 8.86067 6.60061 8.84017L5.89696 6.96803C5.81828 6.99761 5.39586 7.12768 5.09631 7.34974C4.91237 7.48609 4.70956 7.69465 4.58966 8.00109C4.46876 8.31011 4.46903 8.62439 4.53184 8.90786L6.48448 8.4752ZM6.59612 8.84184C6.98353 8.69834 7.40208 8.62864 7.89061 8.58372C8.13695 8.56107 8.38383 8.54596 8.65658 8.52776C8.92277 8.51001 9.2083 8.48959 9.49895 8.45663L9.27355 6.46937C9.03251 6.49671 8.78677 6.51463 8.52346 6.5322C8.2667 6.54933 7.98582 6.56653 7.70748 6.59212C7.14664 6.64369 6.52815 6.73423 5.90145 6.96636L6.59612 8.84184ZM10.0042 6.67682C8.726 5.67202 7.29748 5.54978 6.07042 5.54978V7.54978C7.18755 7.54978 8.03866 7.67566 8.76825 8.24918L10.0042 6.67682ZM6.07042 5.54978C5.99914 5.54978 5.92449 5.55168 5.87041 5.55282C5.81035 5.55409 5.76463 5.55473 5.72366 5.55406C5.63153 5.55256 5.6257 5.54427 5.65902 5.55466C5.70999 5.57056 5.84001 5.62766 5.93823 5.77464C6.0297 5.91152 6.01658 6.01232 6.01822 5.9691L4.01966 5.89332C4.0077 6.20849 4.06147 6.5658 4.27535 6.88587C4.49598 7.21603 4.80394 7.38297 5.06343 7.46392C5.30526 7.53936 5.53852 7.55131 5.6911 7.55379C5.78799 7.55537 6.05825 7.54978 6.07042 7.54978V5.54978ZM6.01834 5.96569C6.01904 5.94539 6.01883 6.04205 5.92672 6.16046C5.83415 6.27946 5.72639 6.32066 5.69483 6.33008C5.67541 6.33587 5.69208 6.32798 5.78304 6.32592C5.82441 6.32498 5.87022 6.3253 5.92886 6.32617C5.98148 6.32694 6.05487 6.32839 6.1235 6.32813L6.11587 4.32815C6.08946 4.32825 5.84838 4.32393 5.73778 4.32643C5.5837 4.32992 5.3579 4.34345 5.12274 4.41364C4.87545 4.48746 4.57871 4.63603 4.34812 4.93245C4.11799 5.22828 4.03072 5.57241 4.01953 5.89672L6.01834 5.96569ZM6.14263 6.32787C7.69 6.29236 9.2068 6.77846 10.4554 7.71239L11.6533 6.11085C10.0483 4.91031 8.09403 4.28256 6.09674 4.3284L6.14263 6.32787ZM10.4559 7.71279C10.5185 7.75956 10.5556 7.78645 10.6055 7.82424C10.6497 7.85774 10.6837 7.88465 10.7113 7.90824C10.7731 7.961 10.7694 7.96938 10.75 7.93737C10.7377 7.91714 10.7191 7.88074 10.7056 7.82951C10.6917 7.77653 10.6866 7.72009 10.6912 7.66553C10.7004 7.55585 10.7418 7.52177 10.7019 7.57646L12.3173 8.75554C12.505 8.49836 12.6541 8.18946 12.6841 7.83349C12.7152 7.46372 12.6094 7.14628 12.4599 6.89989C12.3205 6.67016 12.143 6.50085 12.0102 6.38744C11.8805 6.27664 11.7327 6.17011 11.6528 6.11046L10.4559 7.71279ZM10.7026 7.57552C10.5524 7.78081 10.4391 8.01721 10.3815 8.13091C10.3456 8.20187 10.3209 8.24878 10.2986 8.28652C10.2768 8.32343 10.2673 8.33406 10.2698 8.33115C10.2865 8.31173 10.3665 8.237 10.4949 8.21641C10.5933 8.20062 10.5943 8.23892 10.4299 8.16683L9.6268 9.9985C9.98898 10.1573 10.3932 10.2583 10.8116 10.1912C11.2599 10.1193 11.5765 9.87923 11.7866 9.63474C11.9734 9.41743 12.0975 9.16931 12.1657 9.03467C12.2552 8.85799 12.2859 8.79846 12.3166 8.75649L10.7026 7.57552ZM10.4329 8.16813C9.02429 7.54511 7.56442 7.7024 6.2906 8.08756L6.86945 10.002C7.90924 9.68756 8.82752 9.64498 9.62384 9.9972L10.4329 8.16813ZM6.2956 8.08606C6.18292 8.11949 6.11443 8.13871 6.05778 8.14984C5.99891 8.1614 6.01215 8.15136 6.06671 8.15864C6.13902 8.16828 6.2649 8.20685 6.37525 8.31562C6.47697 8.41589 6.49049 8.50247 6.48468 8.47612L4.53164 8.90695C4.59462 9.19246 4.7228 9.49507 4.97125 9.73997C5.22832 9.99337 5.53299 10.1052 5.80235 10.1411C6.25298 10.2012 6.70715 10.0501 6.86446 10.0035L6.2956 8.08606ZM12.2747 16.8215C12.3064 16.5864 12.3793 16.5036 12.402 16.483C12.4142 16.4718 12.4693 16.4215 12.6579 16.4295L12.7429 14.4313C12.1211 14.4048 11.5223 14.5793 11.0559 15.0037C10.6 15.4186 10.3697 15.9819 10.2926 16.5549L12.2747 16.8215ZM12.6579 16.4295C12.8467 16.4375 12.901 16.4926 12.9156 16.5081C12.9396 16.5337 13.0061 16.6249 13.0204 16.8608L15.0167 16.7396C14.9818 16.1639 14.7943 15.5874 14.3741 15.1396C13.9445 14.6818 13.3644 14.4577 12.7429 14.4313L12.6579 16.4295ZM13.0205 16.8621C13.0216 16.8805 13.0128 16.9607 12.9122 17.0568C12.8112 17.1532 12.7012 17.1828 12.64 17.1798L12.5433 19.1775C13.2296 19.2107 13.8559 18.9207 14.293 18.5036C14.7304 18.0862 15.0614 17.4591 15.0166 16.7383L13.0205 16.8621ZM12.64 17.1798C12.5594 17.1759 12.4498 17.1303 12.3635 17.0343C12.2799 16.9414 12.2695 16.8613 12.275 16.8199L10.2924 16.5566C10.1057 17.9625 11.2855 19.1166 12.5433 19.1775L12.64 17.1798ZM18.3401 22.0226C18.3077 21.587 18.3429 21.2368 18.3429 20.6478H16.3429C16.3429 21.0271 16.3067 21.6488 16.3456 22.1711L18.3401 22.0226ZM18.3429 20.6478C18.3429 18.7388 18.5935 16.9639 19.3936 15.3531L17.6024 14.4635C16.612 16.4573 16.3429 18.5765 16.3429 20.6478H18.3429ZM19.3939 15.3525C20.0169 14.0961 20.8196 13.4526 22.0065 13.4598L22.0186 11.4599C19.8048 11.4464 18.4298 12.7948 17.6021 14.4641L19.3939 15.3525ZM22.0126 13.4598C23.1537 13.4598 23.9431 14.1079 24.5321 15.3116L26.3285 14.4326C25.5416 12.8243 24.1873 11.4598 22.0126 11.4598V13.4598ZM24.531 15.3095C25.6371 17.5834 25.9191 20.0342 25.5741 22.5758L27.5559 22.8448C27.9448 19.9794 27.6357 17.1198 26.3296 14.4347L24.531 15.3095ZM25.574 22.5767C25.4727 23.3283 25.1734 23.8795 24.7568 24.2662C24.3351 24.6577 23.7342 24.9346 22.9487 25.0271L23.1827 27.0134C24.3134 26.8802 25.3331 26.4601 26.1174 25.732C26.9069 24.9992 27.3991 24.0083 27.5561 22.8438L25.574 22.5767ZM22.9576 25.0261C22.4337 25.0831 21.9059 25.0929 21.3803 25.0555L21.2383 27.0505C21.8833 27.0964 22.531 27.0843 23.1739 27.0144L22.9576 25.0261ZM21.369 25.0548C20.3802 24.9956 19.6836 24.6765 19.2169 24.2102C18.7484 23.7419 18.4184 23.0319 18.3399 22.0196L16.3459 22.1742C16.4525 23.55 16.9251 24.7474 17.8032 25.6249C18.6832 26.5042 19.8772 26.9691 21.2496 27.0512L21.369 25.0548ZM30.9747 16.8513C30.9918 16.6301 31.0538 16.5591 31.0768 16.5364C31.107 16.5067 31.2013 16.435 31.4562 16.4043L31.217 14.4186C30.6565 14.4861 30.1029 14.6883 29.6731 15.1118C29.2362 15.5422 29.0264 16.1037 28.9806 16.6975L30.9747 16.8513ZM31.2392 16.4067C31.4761 16.4299 31.5706 16.4945 31.6031 16.5244C31.6262 16.5456 31.6899 16.6121 31.7132 16.8283L33.7017 16.6136C33.6367 16.0113 33.4022 15.461 32.9557 15.0511C32.5185 14.6497 31.9717 14.4688 31.434 14.4162L31.2392 16.4067ZM31.7132 16.8281C31.7189 16.8804 31.7023 16.9643 31.6208 17.0527C31.5376 17.1428 31.4312 17.187 31.3435 17.1894L31.3977 19.1886C32.69 19.1536 33.8515 18.0032 33.7017 16.6138L31.7132 16.8281ZM31.3435 17.1894C31.2713 17.1913 31.1672 17.1573 31.0771 17.0663C30.9873 16.9756 30.9716 16.891 30.9747 16.8514L28.9806 16.6974C28.8742 18.076 30.0818 19.2243 31.3977 19.1886L31.3435 17.1894ZM26.522 21.1146V20.5236H24.522V21.1146H26.522ZM26.522 20.5166C26.5099 18.7938 26.1714 17.0891 25.5245 15.4953L23.6713 16.2475C24.2228 17.6063 24.5118 19.0604 24.522 20.5306L26.522 20.5166ZM25.5181 15.4799C25.2548 14.8609 24.8995 14.1629 24.3464 13.6167C23.7598 13.0373 22.9841 12.662 21.9885 12.6573L21.9789 14.6573C22.422 14.6594 22.7046 14.8062 22.941 15.0397C23.211 15.3063 23.4434 15.7119 23.6777 16.2628L25.5181 15.4799ZM21.9885 12.6573C21.0004 12.6525 20.2151 13.0099 19.6163 13.5845C19.0486 14.1294 18.686 14.8328 18.4249 15.4802L20.2799 16.2281C20.4996 15.6832 20.7332 15.2847 21.0012 15.0275C21.2382 14.8 21.5282 14.6551 21.9789 14.6573L21.9885 12.6573ZM18.4256 15.4785C17.5264 17.6969 17.3265 20.011 17.5379 22.304L19.5294 22.1204C19.3399 20.0644 19.5273 18.0847 20.2792 16.2298L18.4256 15.4785ZM17.5378 22.3038C17.6512 23.5368 18.2004 24.7739 19.5637 25.447L20.4491 23.6537C19.8861 23.3757 19.5995 22.8829 19.5294 22.1207L17.5378 22.3038ZM19.5649 25.4476C21.2611 26.2824 23.0133 26.2923 24.3807 25.4409C25.7475 24.5899 26.5151 23.0124 26.522 21.1183L24.522 21.111C24.517 22.4752 23.9834 23.3323 23.3237 23.743C22.6646 24.1534 21.6649 24.252 20.4479 23.6531L19.5649 25.4476Z" fill="#08A53F" mask="url(#path-1-inside-1_541_901)"/>
<path d="M52.2051 26V3.32178H59.7588V26H52.2051ZM60.9209 22.7871V11.7642L66.2188 3.33887L74.0801 3.32178L60.9209 22.7871ZM74.439 26H66.27L63.7065 20.7192L68.1841 14.0029L74.439 26ZM89.9736 7.85059H84.3682V3.32178H93.1353L97.6812 7.85059V12.4648L95.4082 14.7378L97.6812 17.0107V21.4712L93.1353 26H84.3682V21.4712H89.9736V16.6348H84.3682V12.687H89.9736V7.85059ZM75.6182 3.32178H83.1719V26H75.6182V3.32178ZM108.396 26H105.389L100.843 21.4712V7.85059L105.389 3.32178H108.396V26ZM109.593 7.85059V3.32178H117.642L122.171 7.85059V12.4136H114.617V7.85059H109.593ZM109.593 26V21.4712H114.617V18.1558H122.171V21.4712L117.642 26H109.593Z" fill="white"/>
<defs>
<linearGradient id="paint0_linear_541_901" x1="26.3083" y1="6.72" x2="18.9267" y2="28.4491" gradientUnits="userSpaceOnUse">
<stop stop-color="#08A53F"/>
<stop offset="1" stop-color="#62EA10"/>
</linearGradient>
<linearGradient id="paint1_linear_541_901" x1="26.3083" y1="6.72" x2="18.9267" y2="28.4491" gradientUnits="userSpaceOnUse">
<stop stop-color="#08A53F"/>
<stop offset="1" stop-color="#62EA10"/>
</linearGradient>
</defs>
</svg>
