<svg width="61" height="50" viewBox="0 0 61 50" fill="none" xmlns="http://www.w3.org/2000/svg">
<path d="M60.5718 5.9621C58.927 8.41658 56.8457 10.6021 54.4288 12.3505C54.4623 12.8548 54.4623 13.3928 54.4623 13.9307C54.4623 30.2379 42.0755 49.0331 19.4502 49.0331C12.5015 49.0331 6.02269 46.9821 0.550995 43.4853C1.52449 43.5862 2.49798 43.6534 3.50504 43.6534C9.27886 43.6534 14.5827 41.6697 18.7788 38.3746C16.2119 38.3215 13.7258 37.4666 11.6675 35.9295C9.60928 34.3923 8.08175 32.2497 7.2983 29.8008C8.03681 29.9353 8.80889 30.0361 9.61454 30.0361C10.7223 30.0361 11.8301 29.868 12.8371 29.599C10.053 29.0266 7.55101 27.51 5.7532 25.305C3.95538 23.1001 2.97167 20.3416 2.96794 17.4948V17.3603C4.64638 18.2681 6.52622 18.8397 8.54035 18.9069C6.85453 17.7743 5.47337 16.243 4.51901 14.4485C3.56465 12.654 3.06651 10.6515 3.06865 8.61832C3.06865 6.36558 3.67288 4.24733 4.74708 2.43169C10.823 9.89599 19.8866 14.8049 30.125 15.3093C29.9236 14.4015 29.7893 13.46 29.7893 12.485C29.7982 9.21812 31.1001 6.08811 33.4095 3.78125C35.719 1.47439 38.8475 0.178943 42.109 0.178955C45.6673 0.178955 48.8564 1.65837 51.1055 4.07922C53.8917 3.50763 56.5436 2.49894 58.927 1.08678C57.987 3.94473 56.0401 6.36558 53.4888 7.87861C55.9346 7.61085 58.3241 6.96431 60.5718 5.9621Z" fill="#62EA10"/>
</svg>
